<?xml version="1.0" encoding="utf-8"?>

<!DOCTYPE svg PUBLIC "-//W3C//DTD SVG 1.1//EN" "http://www.w3.org/Graphics/SVG/1.1/DTD/svg11.dtd">
<svg version="1.1" id="Layer_1" xmlns="http://www.w3.org/2000/svg" xmlns:xlink="http://www.w3.org/1999/xlink" x="0px" y="0px"
	 viewBox="0 0 2555.748 1674.417" enable-background="new 0 0 2555.748 1674.417" xml:space="preserve">
<g>
	<g>
		<g>
			<polygon fill="none" points="2297.323,1093.211 2299.527,1093.211 2299.528,1093.211 2297.323,1093.211 			"/>
			<polygon fill="none" points="2203.609,1093.211 2195.674,1093.211 2195.674,1093.211 2203.609,1093.211 			"/>
			<polygon fill="none" points="1854.38,1093.211 969.468,1093.211 969.468,1093.211 1854.379,1093.211 			"/>
			<path fill="#1EB53A" d="M2204.594,1141.985c1.876,0,4.752-3.097,6.636-1.381c1.114,1.014,0.587,3.292,2.671,3.194
				c3.257-0.155,6.315-2.389,9.136-3.798c2.056-1.028,1.551-5.806,1.551-7.942c-4.07-0.575-12.075,2.134-9.135-4.92
				c0.309-0.74,0.699-1.363,1.128-1.927h-8.8c2.174,3.437,2.357,6.125-0.947,9.178
				C2205.916,1135.236,2203.013,1141.985,2204.594,1141.985z"/>
			<path fill="#1EB53A" d="M2300.948,1127.137L2300.948,1127.137l-4.912,2.59c-1.19,1.787,1.683,2.961,3.102,3.022
				c1.839,0.079,3.099-0.162,4.741-0.863c3.604-1.539,4.417-2.226,8.446-0.863c2.154,0.729,3.449-2.295,4.309-3.539
				c0.762-1.105-0.303-1.325-1.207-1.554c-0.989-0.25-2.083-0.385-3.082-0.719h-8.866
				C2302.86,1126.236,2302.073,1127.058,2300.948,1127.137z"/>
			<path fill="#1EB53A" d="M1740.661,1590.163c0-15.765,13.237-29.708,21.89-42.038c6.587-4.288,14.176-18.617,17.151-25.81
				c2.318-5.602,2.695-9.388,3.361-15.278c1.135-10.043,12.432-5.576,18.615-1.986c3.52,2.042,7.541,0.447,4.482-3.625
				c-3.787-5.043-0.37-9.057,2.327-13.553c4.846-3.051,7.428-6.982,11.118-10.79c2.344-2.418,3.573-6.307,3.275-9.582
				c-0.334-3.689,1.781-9.442-0.776-11.999c-1.607-1.607-2.704-1.391-2.585-4.144c0.101-2.352,0.145-3.859-0.173-6.128
				c-0.125-0.042-0.066-0.031-0.172-0.173c-0.708,0.174-1.178,1.354-2.586,1.554c-8.085,1.15-10.169-5.208-10.169-12.172
				c0,0.927-0.454-2.672-1.552-2.935c-3.652-0.877-7.005,1.286-9.739-3.625c-3.268-5.87-3.939-11.432-11.118-9.755
				c-3.689,0.862-10.522-1.158-5.086-5.179c4.146-3.067,5.442-13.182,1.034-16.315c-9.388-6.669-3.092-11.353-0.775-20.63
				c-1.09-3.827-5.429-12.401-5.429-15.711c3.368-0.832,7.047-0.481,10.169-2.33c2.409-1.428-5.718-9.831-6.722-11.481
				c-3.351-5.496-0.185-5.638,4.396-5.87c4.315-0.217,21.043-6.579,12.152-12.172c-4.017-2.526,1.042-2.321,1.206-5.783
				c0.215-4.545-6.258-4.789-8.618-6.561c-3.529-3.536-4.744-18.992-11.807-11.912c-3.355,3.362-4.332,2.82-6.808-0.432
				c-2.411-3.168-10.584,0.445-13.704,0.776c-7.638,3.614-14.952-2.202-20.167,0.259c-3.298,1.557-6.755,5.346-10.859,1.554
				c-3.622-3.346-3.07-17.013-2.844-21.752c0.168-3.547-1.723-1.9-4.396-1.9c-4.405,0-3.723-9.668-9.997-9.668
				c-4.632,0-7.418,2.558-12.238,0c-3.315-1.758-11.366-6.56-14.996-6.56c-9.5,0-2.434-5.661-4.223-11.049
				c0-6.245,6.708-3.032,11.29-4.23c5.12-1.338,3.064-2.495,5.516-6.128c2.113-3.13,3.3-2.348,2.155-6.388
				c-0.489-1.724,0.322-6.102-1.465-6.733c-4.698-1.661-3.189-7.126-3.189-11.394c0-4.569-12.394-9.831-1.12-12.516
				c3.343-0.795,0.221-6.906,5.86-6.906c6.691,0,10.947-1.517,17.064-4.144c4.249,0.933,11.194-12.115,16.548-9.15
				c6.775,3.754,7.082-2.719,12.497,0.259c3.9,2.146,8.575,6.994,12.928,7.51c3.747,0.444,6.725-1.547,10.6,0.173
				c4.804,2.132,8.786,5.42,13.273,8.028c4.406,2.561,15.03,1.978,19.823,0.776c3.639,0.761,7.725-0.383,11.117,0.346
				c4.179,0.899,7.018,6.879,12.066,5.179c4.944-1.666,13.418-3.315,18.615-0.863c1.628,0.769,6.183,0.325,7.154-1.208
				c1.302-2.054-2.327-4.657-2.327-6.906c5.688-3.563,14.674-12.464,11.548-19.509c-2.284-5.146-6.45-3.667,0.087-9.15
				c4.243-3.56,2.16-9.223,1.551-13.811c1.633-4.148-0.45-6.433,4.827-4.748c3.76,1.2,9.921-6.889,14.048-6.733
				c1.644,0.062,10.612,4.511,8.964-2.071c-0.61-2.435,0.641-11.165,1.723-8.718c3.307,7.483,0.709,14.63,11.463,7.855
				c4.302-2.711-0.965-12.53-3.362-15.107c-0.458-0.493-1.005-1.983-1.536-3.912H974.99c2.741,3.489,6.584,6.169,8.512,9.818
				l168.429,122.714l1.897,8.977l68.085,48.858l22.753-6.215l37.577,34.01c9.264,4.075,14.05,9.988,21.374,15.884
				c6.139,4.943,10.698,3.213,16.375,6.733c4.245,2.632,6.325,5.582,9.997,8.977c5.234,4.836,12.663,1.284,18.444,8.114
				c2.625,3.1,4.68,5.31,6.721,8.978c3.3,5.927,7.984,6.52,12.755,10.704c4.646,5.637,16.775,12.063,23.184,16.142
				c10.094,6.421,20.375,17.744,32.405,20.371c3.883,0.847,30.921,7.803,33.009,6.129c0.033-0.165,0.069-0.216,0.173-0.346
				c0-2.367,1.195-2.982,2.155-4.747l11.721,0.173c4.431,7.766,5.756,6.56,13.875,7.596c2.029,0.259,8.3,6.93,10.083,8.632
				c5.494,5.244,13.615,3.23,20.167,5.007c1.542,0.418,2.518,4.516,3.275,5.87c2.007,3.591,7.673,8.435,11.376,10.099
				c4.615,4.29,10.287,8.757,17.064,6.733c7.21-2.155,5.503-1.66,11.808,0.519c6.07,2.097,12.606,5.752,18.012,9.15
				c3.501,2.202,3.348,7.188,5.345,10.497c0.415,0.685,0.607,0.604-0.231,0.664c-4.48,0.341-8.985,4.058-11.664,7.312
				c-1.691,2.053-3.761,3.988-5.257,6.214c-2.03,3.023-3.281,7.181-5.429,9.842l0.517,16.832c0.146,4.74-0.462,8.486-2.757,12.689
				c-4.142,7.582-2.448,12.86,3.275,18.818c5.452,5.675,0.14,21.743-1.027,28.474c2.543-1.801,4.889-2.354,8.352,0.444
				c2.796,2.259,1.852,5.611,6.895,5.611c5.048,0,9.347-7.51,16.375-7.51c3.566,0,4.384,1.294,7.326,2.158
				c3.223,0.947,6.744-1.99,9.653-2.849c8.545-2.523,19.286-10.099,25.942,0.518c1.804,2.878,4.211,5.426,6.55,7.769
				c2.467,2.472,7.709,4.779,8.619,8.374c0.939,3.712,7.321,11.406,10.773,13.207c6.106,3.187,24.438-2.286,29.045-6.647
				c2.004-1.897,4.593-9.252,8.704-6.819c3.329,1.97,3.713,4.711,5.688,7.682c3.25,4.89,25.807-2.052,32.061,9.841l0.001,0.001
				l6.383-13.302C1748.018,1615.127,1740.661,1600.239,1740.661,1590.163z"/>
			<polygon fill="#0099B5" points="427.868,37.208 427.863,37.21 427.867,37.21 			"/>
			<path fill="#0099B5" d="M1414.285,491.572l-49.306-36.616l-24.648-41.606l-12.066-4.834l-56.645,31.368l-71.942-3.055
				l-106.179-12.646l-110.023,23.724l-71.171,5.845L788.872,311.41l-4.924-26.573L624.279,155.32
				c-0.033,9.715-1.918,19.572-6.518,26.69c-6.325,9.785,3.57,9.835,1.897,18.646c-1.702,8.964-2.196,30.475-6.727,37.377
				c-4.038,16.204,0.726,51.872-25.769,49.375c-5.313-0.501-9.121,2.962-14.565,0.863c-4.134-1.594-11.123-8.915-15.428-11.739
				c-9.057-5.941-14.048-13.777-20.684-22.012c-4.974-11.479-14.734-19.472-18.444-31.594c-3.138-10.256,1.491-15.999,5.086-24.86
				c3.524-13.36,7.724-25.813,14.392-37.809c0.714-1.284,1.729-7.165,3.62-6.214l5.172,9.668c0.178,0.066,0.284,0.084,0.431,0.173
				c3.697,0,6.801-14.548,6.637-17.437c0-6.885,0.909-21.448,1.051-33.201L452.635,52.637c-7.938,7.505-13.377,16.17-17.677,26.391
				c-0.282,10.637-5.887,23.013,3.189,31.594c4.871,4.604,4.536,14.928,0.948,20.631c-3.569,5.675-1.908,8.913-3.017,15.02
				l-5.688,15.71c-0.73,2.017-5.066,6.295-2.499,8.115c4.866,3.451,9.825-5.591,9.825,3.884c0,5.024-0.597,8.688-1.293,13.553
				c-0.894,6.251,4.96,18.651-4.74,20.199c-2.914,0.465-5.68-5.942-8.963-1.64c-2.582,3.383-1.328,9.444-1.207,13.38
				c0.527,16.754-4.008,32.221-15.082,45.146c-7.949,9.278-10.335,12.594-22.753,11.481c-1.304-1.749-4.157-3.232-5.774-5.352
				c-1.72-2.253-1.46-5.335-2.156-7.942c-1.167-4.371,0.175-13.725,2.931-17.178c2.206-2.765,5.529-6.971,5.343-10.618
				c0-5.024,0.528-10.59-1.81-15.278c-1.8-3.613-3.684-7.157-4.913-11.05c-2.276-7.214-4.195-17.7-3.448-25.292
				c0.548-5.564,2.871-10.648,3.534-16.142c3.777-7.88,3.541-16.662,7.067-24.084c2.842-5.984,7.55-9.159,8.791-16.229
				c1.918-10.919,5.051-22.059,9.308-32.197c4.749-7.936,13.992-16.967,16.289-25.81c2.129-8.192,2.275-16.538,5.257-24.428
				c0.753-1.991,2.371-4.665,3.768-7.291h-0.004L56.793,156.933l0.044,392.275H1442.99L1414.285,491.572z"/>
			<path fill="#CE1126" d="M2305.085,1121.872c-0.476,0.915-0.945,2.243-1.606,3.338h8.866c-0.533-0.178-1.04-0.409-1.486-0.749
				C2308.373,1122.566,2307.826,1116.603,2305.085,1121.872z"/>
			<path fill="#CE1126" d="M2222.003,1116.089c-3.109,0-10.976,6.861-13.531,1.727c-1.213-2.436,0.133-5.313-0.517-7.942
				c-0.545-2.208-1.096-4.265-1.379-6.56l-0.259-5.784h0c-0.406-0.034-1.313-2.233-2.708-4.319h-7.935
				c0.368,3.557,1.076,7.154,1.076,10.706c0,3.759-0.206,8.058,1.465,11.308c1.661,3.231,6.762,1.872,8.275,4.144
				c1.091,1.64-0.065,3.788,1.033,5.438c0.091,0.136,0.173,0.27,0.258,0.404h8.8
				C2218.744,1122.369,2222.003,1121.199,2222.003,1116.089z"/>
			<path fill="#CE1126" d="M1890.794,1110.91c2.252,2.602,7.465,0.439,10.946,1.467c2.294,0.676,2.063-1.282,2.586-2.762
				c1.007-2.852,4.458-2.198,6.291-4.316c1.966-0.787,3.041-8.626,2.155-10.618c-0.582-1.307-5.841,0.396-7.239,0.518
				c-2.667,0.232-6.286-0.268-8.705,1.036c-9.218,4.969-18.731,9.582-29.647,9.582c-3.275-0.41-5.147,1.849-8.36,0.604
				c-4.48-1.734-9.014-2.363-13.617-3.281c-4.423-0.88-2.068-3.861-2.068-7.165c4.51,0,7.845-1.237,11.245-2.765H969.468
				c-0.044,0.999-0.167,2.028-0.417,3.11c-0.48,2.08-0.73,5.731,0,7.683c1.384,3.696,3.361,4.669,3.361,9.322
				c0,2.12-0.606,5.183,0,7.166c0.546,1.784,1.476,3.315,2.579,4.719h917.026C1890.342,1119.129,1888.832,1108.641,1890.794,1110.91
				z"/>
			<path fill="#CE1126" d="M2298.621,1093.991c0.339-0.071,0.628-0.367,0.907-0.78h-2.204
				C2297.898,1093.723,2298.362,1094.045,2298.621,1093.991z"/>
			<polygon fill="#CE1126" points="1495.083,564.807 1457.951,579.247 1442.99,549.208 56.837,549.208 56.841,581.208 
				1494.886,581.208 			"/>
			<path fill="#FFFFFF" d="M1860.802,1090.365c4.179-1.64,7.871-4.49,12.497-4.49c3.033,0,2.707,2.086,3.534,4.317
				c0.656,1.767,4.707,1.384,6.119,0.949c4.62-1.421,3.822-4.851,7.757-6.215c4.864-1.685,9.953-2.308,14.996-2.935l27.063,2.417
				c2.612,0.232,18.874,5.758,18.874,3.021c-1.568-1.784,0.152-5.395-0.604-7.768c-0.579-1.815-2.321-3.366-1.293-5.352
				c1.649-3.189,4.536-4.907,5.947-8.718c2.259-6.105-0.186-6.14-2.93-11.135c-0.589-3.531-2.499-6.324-2.499-10.013
				c0-5.462,0.289-10.918-2.844-15.451c-0.75-1.084-8.242-6.331-7.067-7.51c1.405-1.407,5.828-4.523,7.584-5.352
				c2.875-1.356,9.12,1.911,9.911-2.503c0.78-4.347-0.169-11.097-0.431-15.624c0.201-2.427-0.576-6.128,0.431-8.287
				c0.77-1.652,3.13-2.183,2.672-4.49c-2.412-12.15,12.657-10.378,20.167-6.733c7.231,3.508,7.416,11.492,14.047,14.848
				c8.13,4.113,10.603,19.599,21.547,9.15c3.992-3.812,4.984-10.286,11.635-10.791c2.513-0.19,4.181-2.753,6.895-2.848
				c3.561-0.125,6.732-0.207,10.256-0.863c6.082-0.891,19.506-6.535,22.58-12.172c4.457-8.171,3.377-5.973,11.118-6.215
				c2.74-0.086,7.849-5.335,9.911-7.25c3.532-3.283,15.39-6.289,15.6-10.704c0.176-3.693,2.068-4.35,2.412-6.733
				c0.42-2.911-2.647-5.543-1.723-9.237c3.05-1.257,3.763-4.936,7.584-5.87c6.757-1.652,7.071-1.801,9.481,5.007
				c1.422,4.018,1.568,2.101,5.343,2.589c2.519,0.325,4.611,0.369,6.809,1.468v0.259c0.518,0.347-1.176,3.016-1.379,3.452
				c-1.286,2.752,8.19,15.43,9.739,17.955c2.182,2.268,4.267,4.196,6.81,5.956c1.327,0.917,4.309,2.19,4.309,4.058
				c-1.367,0.336-5.678-2.175-6.378-1.382c-0.409,0.465,0.384,2.386,0.43,3.022c0.088,1.168-1.526,3.616-0.775,4.576
				c1.172,1.495,7.26,2.246,9.222,3.021c2.253,0.891,5.329,2.987,6.636,5.093l1.731,3.42c-1.03,0.965-1.935,2.085-2.593,3.313
				c-1.057,1.97-4.402,2.352-6.033,4.489c-1.952,2.558-2.695,5.313-7.067,6.215c-3.698,0.763-7.776,4.519-9.739,7.855
				c-1.741,2.959-1.293,4.058-4.051,6.82c-5.392,5.4-11.298-2.052-11.721,9.15c-0.145,3.848-7.031,6.394-10.083,6.906
				c-3.229,0.541-10.806,1.92-14.341,4.472l3.858,9.86c3.483,3.348,5.295,7.914,10.683,9.039l15.066,3.15
				c1.9,0.397,2.75,12.895,4.383,16.162c1.996,3.992,2.232,10.209,6.711,12.327c10.297,4.871,20.305-1.568,29.721-5.205
				c6.483-2.505,14.872-1.643,21.914-1.643l-3.359-7.85c-0.142-0.794-0.523-2.198-0.086-2.935c9.087,0,14.933,1.409,21.029-6.56
				c2.083-2.724,17.933-5.902,18.272-3.539c1.975,1.237,3.45,0.023,6.033,0.776c1.68,0.489,2.361,2.021,3.275,3.367
				c1.518,2.24,6.562,0.087,8.963,0.518c2.855,0.512,4.454,2.481,6.637,4.23l10.601,1.381c4.092,0.532,1.566,5.563,5.515,9.064
				c1.624,1.438,9.263,4.402,11.635,4.402c2.478,0,1.529-7.633,1.896-9.667c0.378-2.101,5.603-1.036,7.326-1.036
				c3.674,0,2.93,0.75,2.93,3.971c0,2.119-0.964,10.54-0.172,10.877c1.496,0.637,3.991,3.576,5.597,5.004h2.205
				c0.937-1.387,1.753-4.153,3.92-4.659c4.92-1.151,6.211-1.054,9.222-5.006c1.245-1.636,4.45-11.671,8.015-6.906
				c7.09,3.87,6.023,2.36,13.1-0.605c1.711-0.717,9.653-2.582,9.653-4.747c-2.906-0.573-11.264-4.656-12.238-7.596
				c-0.656-1.978,11.188-7.498,12.841-9.582c2.942-3.707,3.482-7.677,3.62-12.258c0.135-4.516,5.491-1.521,8.36-3.798
				c2.98-2.366-0.522-4.575,5.171-4.575c1.487,0,8.688-0.731,9.395-0.173c0.872,0.69,0.834,4.11,1.81,5.525
				c1.944,2.816,7.089,1.357,10.342,5.697c1.317,1.758,13.521,8.256,11.635,2.59c-2.336-7.018,6.947-10.024-0.862-17.178
				c-0.916-0.287-5.244-4.113-4.051-4.747c3.163-1.68,8.546-1.404,4.826-6.474c-0.67-0.913-6.128-6.422-6.809-6.647
				c0-0.52,5.354-1.866,6.292-2.244c4.964-1.999,3.988,4.004,6.636,6.474c3.83,3.574,3.488,0.066,6.98,1.813
				c3.656,1.827,1.815,3.108,7.24,3.108c3.675,0,3.402,1.763,5.774,3.452c3.294,2.344,11.633,4.016,11.807-1.985
				c0.046-1.592-3.034-10.411,1.81-8.804c9.283,3.078,8.75-1.376,12.498-7.423c1.678-2.705,0.342-4.062-1.552-5.87
				c-3.358-3.205,3.643-3.509,5.516-2.935c1.909-0.198,4.921,0.587,6.033-1.295c2.195-3.718-0.337-5.798,6.378-6.042
				c7.625-0.279,8.495-9.422,15.082-10.445c3.933-0.61,8.248,1.031,12.152,0.432c2.566-0.393,6.116-3.487,8.102-5.092
				c1.498-1.21,0.517-13.328-1.379-13.811c-2.345-0.599-13.374,0.333-14.823,2.157c-3.963,4.99-11.865,13.723-18.271,6.474
				c-3.661-4.141-1.834-6.009-8.704-5.179c-6.566,0.792-16.379,0.523-22.667-1.208c-2.44-0.813-11.693-2.645-13.273-4.23
				c-1.763-1.769,0.093-5.005-0.172-7.079c-0.722-5.654-2.091-9.668-8.36-9.668c-5.825,0-2.199-2.355-3.189-6.302
				c-0.797-3.177-7.667-5.352-10.946-5.352c-4.202,0-5.975-0.38-8.359-3.538c-2.917-3.866-4.655,1.146-7.843,1.985
				c-6.536,4.787-13.356,7.95-21.116,6.042c0-2.106,3.079-2.462,3.792-4.661c0.825-2.545,1.314-5.004,1.724-7.683
				c0.645-4.205,1.429-15.301-3.448-16.142c-4.701-0.81-6.181-0.468-10.859,2.676c-8.506,5.716-7.977-1.999-15.169-1.727
				c-3.617,0.136-9.513,4.048-12.411,3.022c-1.685-0.598-0.25-6.641-2.499-8.891c-3.027-3.027,1.76-7.591,1.465-11.653
				c0.882-4.45,2.02-8.294-0.604-12.172c-2.585-3.822-1.465-6.525-1.465-10.617l-0.086-0.087c-6.62,0-5.491,1.435-8.618-4.23
				c-1.661-3.007-4.136-8.525-5.171-11.653c-3.431,0-1.554,7.094-6.205,4.92c-5.906-2.759-3.264,1.594-6.206,1.295
				c-0.509-0.052-1.445-3.288-1.896-4.057c-0.708-1.204,2.258-4.47,2.844-5.525c2.56-4.608,2.115-8.463,1.465-13.553
				c-0.909-7.116-7.528,5.442-9.653,7.423c-3.627,3.385,7.564,12.81,2.844,15.452c-4.686,2.624,1.482,8.006-3.275,11.135
				c-6.125,4.597-12.347,11.189-20.771,10.358c-5.953-0.588-12.185-3.6-8.877,5.525c0.964,2.663-1.167,5.345,0.518,8.373
				c3.302,5.929-1.46,4.403-2.241,8.718c-0.505,2.785,3.548,3.57,2.844,5.093c-0.947,2.052-4.999,5.183-4.999,7.079
				c-1.716,0-4.099-6.792-4.395-8.287c-0.653-3.292-4.637-1.468-7.671-1.468c0,1.983-0.639,6.508-2.069,7.942
				c-2.294,2.302-5.118-5.027-4.912-6.474c0-8.612-5.309-2.771-8.705-4.576c-1.152-0.612-1.35-1.295-2.844-1.295
				c-6.888,0-4.976,11.477-13.617,7.424c-2.635-1.235-6.067-5.39-8.188-7.51c-3.796,0-7.206,5.739-10.688,5.179
				c-2.731-0.438-6.473-5.275-8.445-7.251c-7.343-7.353-8.689-12.651-17.065-2.158c-0.53,0.076-0.698,0.294-1.207-0.086
				c0-4.15-1.754-8.763-1.551-13.035c0.417-8.764,3.105-12.771,0.086-21.839c-0.446-2.687-4.82-8.959-6.378-11.653
				c-1.886-3.26-6.174-1.689-9.394-1.122c-11.442,2.014-10.108,1.358-15.342,11.826c-11.413,2.312-8.858-3.821-16.547-8.977
				l-19.047-12.775c-6.324-4.241-6.894,6.139-14.479,2.762c-5.073-2.258-6.006-7.863-3.361-12.516
				c4.059-0.801,2.315-6.223,5.429-7.079l12.239-3.366c9.713-2.671,13.181-15.529,22.58-18.127
				c9.991-2.762,6.201-9.005,11.98-15.279c4.257-2.128,8.205-2.524,11.118-6.56c2.239-3.101,2.905-5.86,3.965-9.323
				c1.136-3.706,11.429-9.516,15.341-8.891c4.083,0.651,9.701,3.293,11.893-2.416c1.65-4.295,0.959-11.489,0.173-15.97
				c0.52-8.985,11.479-2.022,15.341-0.69c6.989,2.411,8.442-2.96,11.29-7.079c2.056-2.972,6.508-2.216,8.618-6.215
				c2.007-3.802,8.712-7.436,12.669-7.855c3.217-0.34,6.131,1.376,8.101-2.071c2.167-0.722,1.378-4.047,1.378-5.87
				c0-1.943,0.963-3.574,1.552-5.352c1.023-3.088-5.488-2.786-7.843-4.661c-1.548-1.234-2.926-4.552-4.137-6.301
				c-3.032-4.384-9.393-1.474-13.445-3.799c-1.509-0.866-3.142-3.08-4.913-2.33c-3.217,1.361-4.363,4.502-6.98,6.388
				c-2.887,2.082-5.194-0.084-8.36,0.086l-2.24,5.87l-9.481,6.647c-3.956,1.38-5.15-1.804-8.704-1.295
				c-3.996,0.571-4.485,4.573-6.292,7.079c-4.656,6.453-9.252,8.566-11.376,17.264c-1.51,6.188-2.239,7.899-6.464,12.517
				c-2.884,3.151-10.676-3.072-11.291-6.215c-0.48-2.448-0.745-5.239-2.585-7.079c-7.199-7.199-12.524,0.705-21.116,3.194
				c-4.815,1.394-6.895,4.923-6.895,9.755c0.242,0.108,0.195,0.084,0.258-0.173c-0.335,5.461,2.095,8.079-4.222,10.877
				c-4.479,1.985-7.07,0.958-9.567,5.784c-1.333,2.575-4.4,2.638-5.343,5.006c-1.292,3.239-0.257,5.296-2.586,8.46
				c-4.101,5.572-9.443,3.265-13.703,7.683c-3.2,3.2-4.624,8.919-9.136,5.265c-3.512-2.845-4.343,6.084-5.429,7.769
				c-1.74,2.701-5.579,2.902-7.24,5.179c-3.186,4.364-8.219,2.988-12.238,0.863c-2.687-1.422-14.5,4.29-17.237,5.956
				c-3.839,2.335-7.405,1.786-10.773,3.366c-4.023,1.888-5.534,6.531-9.567,8.46c-3.62,4.533-5.926,10.116-9.739,14.329
				c-4.315,4.766-5.167-4.312-7.412-3.625c-2.715,0.829-3.606,4.829-6.033,6.215c-5.144,2.941-1.02,5.998,3.102,8.46
				c7.092,4.234-2.272,5.878-5.946,5.179c-6.576-1.251-13.947,6.75-17.927,2.762c-3.209-3.214-5.533-1.608-9.049,0.087
				c-2.963,1.429-8.886,2.216-7.326,6.474c2.306,6.294-4.132,3.817-7.326,6.214c-1.523,1.144-1.812,5.086-4.481,4.575
				c-2.597-0.498-4.482-2.659-4.482,2.589c-0.661,4.223,0.523,4.568-2.24,8.201c-2.543,3.341-0.5,4.363,0,7.769
				c0.938,6.401-2.544,9.64-9.136,11.999c-13.142,4.704-24.527,17.594-33.268,27.795c-5.052,5.897,11.131,8.513-0.431,16.229
				l-10.991,3.925c-1.009-1.201-1.721-2.491-1.764-3.839c-0.077-2.397,1.406-4.245,1.293-6.387
				c-0.161-3.018-5.269-0.038-6.119-2.244c-0.422-1.099,0.077-2.065-0.134-2.666l-4.513,1.719c-1.042,0.29-1.797,0.293-2.844,0.086
				c-0.633-0.126-1.247-0.259-1.897-0.129c-1.643,0.328-2.328,0.858-3.023,2.371c-1.211,2.626-0.836,3.681-3.362,5.698
				c-1.044,0.834-1.954,2.092-0.431,2.935c1.946,1.075,5.572,1.402,7.843,2.071c3.911,1.153,6.825,14.031,5.085,17.178
				c-2.276,4.118-5.967,6.362-1.896,11.221c2.122,2.533,11.791,25.306,11.29,26.155c-3.962,6.723,3.209,6.684,3.016,12.431
				c-0.155,4.641-5.112,2.623-7.843,2.935c-2.127,0.242-3.833,1.201-6.033,1.122c-2.293-0.083-3.688-2.061-5.774-2.503
				c-6.592-1.396-10.838,1.069-16.03-4.834c-2.22-2.525-5.095-2.154-8.188-2.935c-2.541-0.642-3.401-2.187-5.602-3.194
				c-7.253-5.129-14.235-10.027-20.77-16.056c-5.784-5.338-11.307-11.147-18.358-14.675c-3.606-1.805-11.786-1.812-14.393-3.884
				c0-1.603,5.522-6.097,7.067-7.164c3.191-0.615,16.68-2.422,11.98-9.237c-2.803-4.063,4.494-5.99,0.948-10.531
				c-2.419-3.098,2.363-3.502-1.207-7.079c-0.845-0.846-3.25-2.947-1.379-3.884c6.421-3.214,10.544,0.159,3.792-7.25
				c-2.186-2.397-2.944-4.141-4.137,0.431c-1.351,5.173-3.056,2.162-6.55,4.575c-0.721,0.499-1.563,3.343-2.327,3.28
				c-2.436-0.199-2.075-7-2.327-8.718c-0.602-4.115-2.907-11.344-2.074-15.192h-11.548l-2.931,2.935l-18.787-10.186l-51.021,11.05
				l-95.492-2.59l-13.672-64.33l-11.346-75.641l-75.297-11.346l-1.031-81.83l13.065,2.407l1.178-97.748H56.841l0.033,294.758
				l112.43,6.189l35.758,9.627c8.721-1.962-6.133-12.405,2.985-15.061c6.508-1.897,13.876-3.167,13.876-10.877
				c-2.426-0.6-6.083,5.039-9.653,0.777c-4.029-4.812-6.665-10.044-7.326-16.229c-0.429-4.007,0.535-8.089,0.948-11.999
				c0.558-5.289-1.711-8.928-2.326-13.897c-1.783-2.035-4.774-9.164-5.688-11.912c-2.277-6.845-1.47-12.442-2.155-19.595
				c-0.724-7.574-0.129-16.657,1.033-24.084c4.26-2.475,5.554-6.158,11.204-7.337c17.706-3.696,19.494-25.516,29.475-38.586
				c6.23-8.16,20.765-6.777,29.992-5.784c13.034,1.404,22.064,3.588,34.042-2.417c3.526-0.171,7.172-1.171,10.773-1.381
				c2.699-0.158,9.892,1.072,8.877-3.021c-0.312-1.254-2.698-8.832-1.034-9.15c0.969-0.186,3.392,3.539,5.774,3.539
				c3.879,0,2.419-6.071,3.276-8.978c1.592-5.396,5.137-11.049,6.205-16.4c2.616-8.082-4.155-9.666-5.429-14.848
				c-1.657-6.742,6.825,0.675,8.963-5.092c2.061-5.56,0.562-4.268,5.171-8.978c1.894-1.936,3.814-8.739,6.637-4.402
				c2.005,3.08,5.494,2.092,8.704,2.848c4.001,0.941-1.424,12.519,4.223,9.582c10.603-5.517,21.453-0.884,28.958,7.079
				c5.763,6.116,3.155,16.8,4.913,23.911c4.728,0,8.038-0.283,12.927,0.605c4.61,0.838,4.396,2.237,4.396-3.885
				c0-8.043-4.866-5.935-9.997-10.704c-6.874-6.389-10.114-20.19-15.686-28.572c-4.003-6.023-4.495-9.252-11.461-11.307
				c-3.656-1.078-16.636-4.098-12.669-10.186c6.715-4.274,10.337-11.739,19.381-11.739c6.228,0,11.109,2.384,16.547,5.006
				c7.068,3.41,14.205,2.309,21.891,1.727c7.481-0.568,3.189-7.49,3.189-12.516c2.123-0.536,12.678-0.887,5.257-4.748
				c-2.214-1.152-1.937-9.059-0.431-11.135l54.813,52.052c4.521-0.26,8.912,1.435,13.617,0.863
				c3.322-0.404,8.641-0.967,11.808-0.346c1.074,1.346,0.257,3.349,1.551,4.834c2.494,2.859,6.883,5.417,8.446,8.718
				c1.11,2.342,0.077,4.929,0.431,7.337c0.482,3.288,5.563,10.642,8.446,11.998c2.784,1.308,5.719,1.91,8.445,3.195
				c2.365,1.116,3.311,3.081,5.086,4.143c0.859,7.844,11.319,5.403,17.236,5.611c4.851,0.349,9.112-2.458,13.618-1.899
				c3.806,0.473,3.954,3.419,7.929,0.345c4.962-3.837,9.494,2.688,14.393,3.367c3.261,0.452,6.494-4.106,9.997-5.007
				c7.721-1.985,5.998,4.994,11.807,8.546c5.001,3.058,12.177,5.226,10.946,12.258c-1.565,0.418-0.204,3.4-3.189,4.317
				c-1.023,0.315-4.539,0.173-4.482,1.554c0.066,1.63,2.317,3.051,2.672,4.92c1.07,5.639,4.516,3.57,9.394,3.711
				c4.243,0.124,0.896,11.522,0.345,14.07c-0.496,2.288-2.746,8.829-5.343,9.323c-3.484,0.662-4.244-4.029-7.843-2.417
				c-0.879,0.394-6.132,0.822-5.257,2.676c0.835,1.768,2.563,2.536,3.189,4.575c1.287,4.196,1.978,6.508,6.033,4.143
				c4.033-2.354,5.836-1.481,6.808,2.417c-3.366,8.096,3.902,6.368,9.136,7.079c7.376,1.002,5.325,4.868,8.446,9.236
				c2.106,2.946,8.443,4.604,11.721,5.784c2.218,0.797,12.999,9.13,12.325,11.826c-0.395,1.577-2.833,2.461-3.965,3.366
				c-1.648,1.317-7.295-3.038-9.566-4.143c-3.024-1.474-4.723-4.571-7.757-5.179c-2.186-0.437-11.322-3.419-12.583-2.245
				c-1.615,1.501-0.148,4.184-1.034,5.956c-0.989,1.981-3.917,2.17-5.688,3.28c-0.696,5.649,10.267,15.78,13.445,20.027
				c1.584,5.048,7.713,8.865,2.93,13.897c-5.139,5.406-9.398,13.967-10.859,21.321c-2.076,10.46,15.743,19.414,21.632,26.674
				c3.138,2.751,8.987,1.779,12.927,2.935c4.807,1.409,11.631,8.473,14.996,12.344c4.44,5.105,18.004,8.645,23.874,4.92
				c11.923-7.564,18.928-6.301,32.922-6.301l17.754,1.381c4.672,0.363,9.969,7.161,11.549-0.604c1.22-5.994,7.421,3.722,7.843,4.23
				c5.138,6.188,12.63,12.512,20.598,15.02c11.647,3.665,15.755-0.474,22.494-8.374l0.417-7.604c1.9-2.836,1.936-12.062,4.932-14.58
				c2.09-1.758,26.28,7.675,28.527,10.704c5.713,7.7,17.216,10.411,22.236,18.99c2.572,4.395,9.38,6.279,12.841,10.013
				c2.054,2.217,1.124,8.05,4.567,9.582c3.456,1.538,5.131,1.237,7.24,4.747c6.746,11.223,4.292,20.387,3.878,32.975
				c-0.194,5.898,5.343,9.45,6.377,14.848c0.797,4.167,0.319,8.519,1.897,12.516c1.259,3.192,5.101,2.72,6.464,5.784
				c2.156,4.845,1.488,10.676,2.671,15.883c1.465,6.447,5.923,13.209,11.29,16.832c5.757,3.887,16.435,1.766,19.391,9.927
				c1.626,4.49-1.516,10.122,1.207,13.897c1.973,2.735,7.29,2.995,8.015,6.56c1.142,5.613-1.394,11.378-0.431,17.092
				c0.918,5.442,3.331,9.838,3.09,15.276h884.912C1856.409,1092.299,1858.462,1091.283,1860.802,1090.365z"/>
			<path fill="#FFFFFF" d="M2199.336,1089.588c-0.925-0.193-3.878-1.563-3.878-0.086c0,1.229,0.088,2.467,0.217,3.709h7.935
				C2202.495,1091.544,2201.07,1089.949,2199.336,1089.588z"/>
		</g>
		<g>
			<path fill-rule="evenodd" clip-rule="evenodd" fill="#FFFFFF" d="M158.159,413.582c0-53.438,39.1-98.012,90.148-106.641
				c-5.869-0.992-11.886-1.536-18.029-1.536c-59.582,0-108.177,48.595-108.177,108.177s48.595,108.177,108.177,108.177
				c6.143,0,12.161-0.544,18.029-1.536C197.26,511.593,158.159,467.02,158.159,413.582z"/>
			<g>
				<polygon fill-rule="evenodd" clip-rule="evenodd" fill="#FFFFFF" points="473.124,493.439 468.266,478.488 463.408,493.439 
					447.69,493.439 460.407,502.678 455.549,517.627 468.266,508.387 480.983,517.627 476.126,502.678 488.843,493.439 				"/>
				<polygon fill-rule="evenodd" clip-rule="evenodd" fill="#FFFFFF" points="468.266,391.946 463.408,406.897 447.69,406.897 
					460.407,416.137 455.549,431.085 468.266,421.846 480.983,431.085 476.126,416.137 488.843,406.897 473.124,406.897 				"/>
				<polygon fill-rule="evenodd" clip-rule="evenodd" fill="#FFFFFF" points="468.266,305.405 463.408,320.355 447.69,320.355 
					460.407,329.595 455.549,344.544 468.266,335.304 480.983,344.544 476.126,329.595 488.843,320.355 473.124,320.355 				"/>
				<polygon fill-rule="evenodd" clip-rule="evenodd" fill="#FFFFFF" points="559.666,493.439 554.808,478.488 549.95,493.439 
					534.231,493.439 546.948,502.678 542.091,517.627 554.808,508.387 567.525,517.627 562.667,502.678 575.384,493.439 				"/>
				<polygon fill-rule="evenodd" clip-rule="evenodd" fill="#FFFFFF" points="554.808,391.946 549.95,406.897 534.231,406.897 
					546.948,416.137 542.091,431.085 554.808,421.846 567.525,431.085 562.667,416.137 575.384,406.897 559.666,406.897 				"/>
				<polygon fill-rule="evenodd" clip-rule="evenodd" fill="#FFFFFF" points="554.808,305.405 549.95,320.355 534.231,320.355 
					546.948,329.595 542.091,344.544 554.808,335.304 567.525,344.544 562.667,329.595 575.384,320.355 559.666,320.355 				"/>
				<polygon fill-rule="evenodd" clip-rule="evenodd" fill="#FFFFFF" points="646.208,493.439 641.35,478.488 636.492,493.439 
					620.773,493.439 633.49,502.678 628.633,517.627 641.35,508.387 654.067,517.627 649.209,502.678 661.926,493.439 				"/>
				<polygon fill-rule="evenodd" clip-rule="evenodd" fill="#FFFFFF" points="641.35,391.946 636.492,406.897 620.773,406.897 
					633.49,416.137 628.633,431.085 641.35,421.846 654.067,431.085 649.209,416.137 661.926,406.897 646.208,406.897 				"/>
				<polygon fill-rule="evenodd" clip-rule="evenodd" fill="#FFFFFF" points="633.49,329.595 628.633,344.544 641.35,335.304 
					654.067,344.544 649.209,329.595 661.926,320.355 646.208,320.355 641.35,305.405 636.492,320.355 620.773,320.355 				"/>
				<polygon fill-rule="evenodd" clip-rule="evenodd" fill="#FFFFFF" points="300.041,493.439 295.183,478.488 290.325,493.439 
					274.606,493.439 287.323,502.678 282.466,517.627 295.183,508.387 307.9,517.627 303.042,502.678 315.759,493.439 				"/>
				<polygon fill-rule="evenodd" clip-rule="evenodd" fill="#FFFFFF" points="386.583,493.439 381.725,478.488 376.867,493.439 
					361.148,493.439 373.865,502.678 369.008,517.627 381.725,508.387 394.441,517.627 389.584,502.678 402.301,493.439 				"/>
				<polygon fill-rule="evenodd" clip-rule="evenodd" fill="#FFFFFF" points="381.725,391.946 376.867,406.897 361.148,406.897 
					373.865,416.137 369.008,431.085 381.725,421.846 394.441,431.085 389.584,416.137 402.301,406.897 386.583,406.897 				"/>
			</g>
		</g>
	</g>
	<path fill="none" stroke="#000000" stroke-miterlimit="10" d="M2206.317,1097.53c-0.731-0.061-3.076-7.128-6.981-7.942
		c-0.925-0.193-3.878-1.563-3.878-0.086c0,4.749,1.293,9.622,1.293,14.415c0,3.759-0.206,8.058,1.465,11.308
		c1.661,3.231,6.762,1.872,8.274,4.144c1.091,1.64-0.065,3.788,1.033,5.438c2.418,3.634,2.743,6.41-0.689,9.582
		c-0.918,0.847-3.821,7.596-2.24,7.596c1.876,0,4.752-3.097,6.636-1.381c1.114,1.014,0.587,3.292,2.671,3.194
		c3.257-0.155,6.315-2.389,9.136-3.798c2.055-1.028,1.551-5.806,1.551-7.942c-4.07-0.575-12.075,2.134-9.135-4.92
		c1.864-4.469,6.55-4.924,6.55-11.049c-3.109,0-10.976,6.861-13.531,1.727c-1.213-2.436,0.133-5.313-0.517-7.942
		c-0.545-2.208-1.096-4.265-1.379-6.56L2206.317,1097.53L2206.317,1097.53z M2300.948,1127.137c2.325-0.163,3.214-3.494,4.136-5.265
		c2.741-5.269,3.288,0.693,5.774,2.589c1.282,0.979,3.052,1.085,4.568,1.468c0.904,0.229,1.969,0.449,1.207,1.554
		c-0.86,1.244-2.156,4.269-4.309,3.539c-4.029-1.363-4.843-0.675-8.446,0.863c-1.642,0.702-2.902,0.943-4.741,0.863
		c-1.419-0.06-4.292-1.235-3.102-3.022L2300.948,1127.137L2300.948,1127.137z M1734.972,1637.208l6.382-13.302
		c6.663-8.779-0.694-23.667-0.694-33.743c0-15.765,13.237-29.708,21.89-42.038c6.587-4.288,14.176-18.617,17.151-25.81
		c2.318-5.602,2.695-9.388,3.361-15.278c1.135-10.043,12.432-5.576,18.615-1.985c3.52,2.042,7.54,0.447,4.482-3.625
		c-3.787-5.043-0.37-9.057,2.327-13.553c4.846-3.051,7.428-6.982,11.118-10.79c2.344-2.418,3.572-6.307,3.275-9.582
		c-0.334-3.689,1.781-9.442-0.776-11.999c-1.607-1.607-2.704-1.391-2.585-4.144c0.101-2.352,0.145-3.859-0.173-6.128
		c-0.125-0.042-0.066-0.031-0.172-0.173c-0.708,0.174-1.178,1.354-2.586,1.554c-8.086,1.15-10.169-5.208-10.169-12.172
		c0,0.928-0.454-2.672-1.552-2.935c-3.652-0.877-7.005,1.286-9.739-3.625c-3.268-5.87-3.939-11.432-11.118-9.755
		c-3.689,0.862-10.522-1.158-5.086-5.179c4.146-3.067,5.442-13.182,1.034-16.315c-9.388-6.67-3.092-11.353-0.776-20.63
		c-1.09-3.827-5.429-12.401-5.429-15.711c3.368-0.832,7.047-0.481,10.169-2.33c2.409-1.428-5.718-9.831-6.723-11.481
		c-3.35-5.496-0.185-5.638,4.396-5.87c4.315-0.217,21.043-6.579,12.152-12.172c-4.017-2.526,1.042-2.321,1.206-5.783
		c0.215-4.545-6.258-4.789-8.618-6.561c-3.529-3.536-4.744-18.991-11.807-11.912c-3.355,3.362-4.332,2.82-6.808-0.432
		c-2.411-3.168-10.584,0.445-13.704,0.776c-7.638,3.614-14.953-2.202-20.167,0.259c-3.298,1.557-6.755,5.346-10.859,1.554
		c-3.622-3.346-3.07-17.013-2.844-21.752c0.168-3.547-1.723-1.899-4.396-1.899c-4.406,0-3.723-9.668-9.997-9.668
		c-4.632,0-7.418,2.558-12.238,0c-3.314-1.758-11.366-6.56-14.996-6.56c-9.5,0-2.434-5.661-4.223-11.05
		c0-6.245,6.708-3.032,11.289-4.23c5.12-1.338,3.064-2.495,5.516-6.128c2.113-3.13,3.3-2.348,2.155-6.388
		c-0.489-1.724,0.322-6.102-1.465-6.733c-4.698-1.661-3.189-7.126-3.189-11.394c0-4.569-12.394-9.831-1.12-12.516
		c3.343-0.795,0.221-6.906,5.86-6.906c6.691,0,10.947-1.517,17.064-4.144c4.249,0.933,11.194-12.115,16.548-9.15
		c6.775,3.754,7.082-2.719,12.497,0.259c3.9,2.146,8.575,6.994,12.928,7.51c3.747,0.444,6.725-1.547,10.6,0.173
		c4.804,2.132,8.786,5.42,13.273,8.028c4.406,2.561,15.03,1.978,19.823,0.776c3.639,0.761,7.725-0.383,11.118,0.346
		c4.179,0.899,7.018,6.879,12.066,5.179c4.944-1.666,13.418-3.315,18.615-0.863c1.628,0.769,6.183,0.325,7.154-1.208
		c1.302-2.054-2.327-4.657-2.327-6.906c5.688-3.563,14.674-12.464,11.548-19.509c-2.284-5.146-6.45-3.667,0.087-9.15
		c4.243-3.56,2.16-9.223,1.551-13.81c1.633-4.149-0.451-6.434,4.827-4.748c3.76,1.2,9.921-6.889,14.047-6.733
		c1.645,0.061,10.612,4.511,8.964-2.072c-0.61-2.435,0.641-11.165,1.723-8.718c3.307,7.483,0.709,14.63,11.463,7.855
		c4.302-2.711-0.965-12.53-3.362-15.106c-1.902-2.047-5.342-21.202-2.758-18.213c2.252,2.602,7.465,0.439,10.946,1.467
		c2.294,0.676,2.063-1.282,2.586-2.762c1.007-2.852,4.458-2.198,6.291-4.316c1.966-0.787,3.041-8.626,2.155-10.618
		c-0.582-1.307-5.841,0.396-7.239,0.518c-2.667,0.232-6.286-0.268-8.705,1.036c-9.218,4.969-18.731,9.582-29.647,9.582
		c-3.275-0.41-5.147,1.849-8.36,0.604c-4.48-1.734-9.014-2.363-13.617-3.281c-4.424-0.88-2.069-3.861-2.069-7.165
		c7.203,0,11.409-3.156,17.668-5.611c4.179-1.64,7.871-4.489,12.497-4.489c3.033,0,2.707,2.085,3.534,4.317
		c0.656,1.767,4.707,1.384,6.119,0.949c4.62-1.421,3.822-4.851,7.757-6.215c4.864-1.685,9.953-2.308,14.996-2.935l27.063,2.417
		c2.612,0.232,18.874,5.758,18.874,3.021c-1.568-1.784,0.152-5.395-0.604-7.768c-0.579-1.815-2.321-3.366-1.293-5.352
		c1.649-3.189,4.536-4.907,5.947-8.718c2.259-6.105-0.186-6.14-2.93-11.135c-0.589-3.531-2.499-6.324-2.499-10.013
		c0-5.462,0.289-10.918-2.844-15.451c-0.75-1.084-8.242-6.331-7.067-7.51c1.405-1.407,5.828-4.523,7.584-5.352
		c2.875-1.356,9.12,1.911,9.911-2.503c0.78-4.347-0.169-11.097-0.431-15.624c0.201-2.427-0.576-6.128,0.431-8.287
		c0.77-1.652,3.13-2.183,2.672-4.49c-2.412-12.15,12.657-10.378,20.167-6.733c7.231,3.508,7.416,11.492,14.048,14.848
		c8.13,4.113,10.603,19.599,21.547,9.15c3.992-3.812,4.984-10.286,11.635-10.791c2.513-0.19,4.181-2.753,6.894-2.848
		c3.561-0.125,6.732-0.207,10.256-0.863c6.082-0.891,19.506-6.535,22.58-12.172c4.457-8.171,3.377-5.973,11.118-6.215
		c2.74-0.086,7.849-5.335,9.911-7.251c3.532-3.283,15.39-6.289,15.6-10.704c0.176-3.693,2.068-4.35,2.412-6.733
		c0.42-2.911-2.648-5.543-1.723-9.237c3.05-1.257,3.763-4.936,7.584-5.87c6.757-1.652,7.071-1.801,9.48,5.007
		c1.423,4.018,1.568,2.101,5.344,2.589c2.519,0.325,4.61,0.369,6.808,1.468v0.259c0.518,0.347-1.176,3.016-1.379,3.452
		c-1.287,2.752,8.19,15.429,9.739,17.955c2.182,2.268,4.267,4.196,6.809,5.956c1.327,0.917,4.309,2.19,4.309,4.058
		c-1.367,0.336-5.678-2.175-6.378-1.382c-0.409,0.465,0.384,2.386,0.431,3.022c0.088,1.168-1.526,3.616-0.775,4.575
		c1.172,1.495,7.26,2.246,9.222,3.021c2.253,0.891,5.329,2.987,6.636,5.093l1.731,3.42c-1.03,0.965-1.935,2.085-2.593,3.313
		c-1.057,1.97-4.402,2.352-6.033,4.489c-1.952,2.558-2.695,5.313-7.067,6.215c-3.698,0.763-7.776,4.519-9.739,7.855
		c-1.741,2.959-1.293,4.058-4.051,6.82c-5.392,5.4-11.298-2.052-11.721,9.15c-0.145,3.848-7.031,6.394-10.083,6.906
		c-3.229,0.541-10.806,1.92-14.341,4.472l3.858,9.86c3.483,3.348,5.295,7.914,10.683,9.04l15.066,3.15
		c1.901,0.397,2.751,12.895,4.383,16.161c1.996,3.992,2.232,10.209,6.711,12.327c10.298,4.871,20.305-1.568,29.721-5.204
		c6.483-2.505,14.872-1.644,21.914-1.644l0,0l-3.359-7.85c-0.142-0.794-0.523-2.198-0.086-2.935c9.087,0,14.933,1.409,21.029-6.56
		c2.083-2.724,17.933-5.902,18.272-3.539c1.975,1.237,3.449,0.023,6.033,0.776c1.68,0.489,2.361,2.02,3.275,3.367
		c1.518,2.24,6.562,0.087,8.963,0.518c2.855,0.512,4.454,2.481,6.636,4.23l10.601,1.381c4.092,0.532,1.566,5.563,5.515,9.064
		c1.624,1.439,9.263,4.402,11.635,4.402c2.478,0,1.529-7.633,1.896-9.668c0.378-2.101,5.603-1.036,7.326-1.036
		c3.673,0,2.93,0.75,2.93,3.971c0,2.119-0.964,10.541-0.172,10.877c2.033,0.865,5.915,5.99,6.895,5.784
		c1.479-0.311,2.016-4.782,4.827-5.439c4.92-1.151,6.211-1.054,9.222-5.006c1.245-1.636,4.45-11.671,8.015-6.906
		c7.09,3.87,6.023,2.36,13.1-0.605c1.71-0.717,9.653-2.581,9.653-4.747c-2.906-0.573-11.264-4.656-12.238-7.596
		c-0.655-1.978,11.188-7.498,12.842-9.582c2.942-3.708,3.481-7.677,3.62-12.258c0.135-4.516,5.491-1.521,8.36-3.798
		c2.98-2.366-0.522-4.574,5.17-4.574c1.487,0,8.688-0.731,9.395-0.173c0.872,0.69,0.834,4.11,1.81,5.525
		c1.944,2.816,7.089,1.357,10.342,5.697c1.317,1.758,13.521,8.256,11.635,2.59c-2.336-7.018,6.947-10.024-0.863-17.178
		c-0.916-0.287-5.243-4.113-4.05-4.747c3.163-1.68,8.546-1.404,4.826-6.474c-0.669-0.913-6.127-6.422-6.808-6.647
		c0-0.519,5.354-1.866,6.292-2.244c4.964-1.999,3.988,4.004,6.637,6.474c3.83,3.574,3.487,0.066,6.98,1.813
		c3.656,1.827,1.815,3.108,7.24,3.108c3.674,0,3.402,1.763,5.774,3.452c3.294,2.344,11.633,4.016,11.807-1.985
		c0.047-1.592-3.034-10.411,1.81-8.804c9.283,3.078,8.75-1.376,12.498-7.423c1.677-2.705,0.342-4.062-1.552-5.87
		c-3.358-3.205,3.643-3.509,5.516-2.935c1.909-0.198,4.921,0.587,6.033-1.295c2.195-3.718-0.337-5.798,6.378-6.042
		c7.625-0.279,8.494-9.422,15.082-10.445c3.933-0.61,8.248,1.031,12.152,0.432c2.566-0.393,6.116-3.487,8.102-5.092
		c1.498-1.21,0.517-13.328-1.379-13.811c-2.345-0.599-13.374,0.333-14.823,2.157c-3.963,4.99-11.865,13.723-18.272,6.474
		c-3.661-4.141-1.834-6.009-8.704-5.179c-6.566,0.793-16.379,0.523-22.667-1.208c-2.44-0.813-11.693-2.645-13.273-4.23
		c-1.764-1.769,0.093-5.005-0.172-7.079c-0.721-5.654-2.091-9.668-8.36-9.668c-5.825,0-2.199-2.355-3.189-6.302
		c-0.797-3.177-7.667-5.352-10.946-5.352c-4.202,0-5.975-0.38-8.359-3.538c-2.917-3.866-4.655,1.146-7.843,1.985
		c-6.536,4.787-13.356,7.95-21.116,6.042c0-2.106,3.079-2.462,3.792-4.661c0.825-2.545,1.314-5.004,1.724-7.683
		c0.645-4.205,1.429-15.301-3.448-16.142c-4.701-0.81-6.181-0.468-10.859,2.676c-8.506,5.716-7.977-1.999-15.169-1.727
		c-3.617,0.136-9.513,4.048-12.411,3.022c-1.685-0.598-0.25-6.641-2.499-8.891c-3.027-3.027,1.76-7.59,1.465-11.653
		c0.882-4.45,2.021-8.294-0.604-12.172c-2.585-3.822-1.465-6.525-1.465-10.617l-0.086-0.087c-6.62,0-5.491,1.435-8.618-4.23
		c-1.661-3.007-4.136-8.525-5.171-11.653c-3.431,0-1.554,7.094-6.205,4.92c-5.906-2.759-3.264,1.594-6.206,1.295
		c-0.509-0.052-1.445-3.288-1.896-4.057c-0.708-1.204,2.257-4.47,2.844-5.525c2.56-4.608,2.115-8.463,1.465-13.553
		c-0.909-7.116-7.528,5.442-9.652,7.423c-3.627,3.385,7.564,12.81,2.844,15.452c-4.686,2.624,1.482,8.006-3.275,11.135
		c-6.125,4.597-12.348,11.189-20.771,10.358c-5.953-0.588-12.185-3.6-8.877,5.525c0.964,2.663-1.167,5.345,0.518,8.373
		c3.302,5.929-1.46,4.403-2.242,8.718c-0.504,2.785,3.548,3.57,2.844,5.093c-0.947,2.052-4.999,5.183-4.999,7.079
		c-1.716,0-4.098-6.792-4.395-8.287c-0.653-3.292-4.637-1.468-7.671-1.468c0,1.983-0.638,6.508-2.069,7.942
		c-2.294,2.302-5.118-5.027-4.912-6.474c0-8.612-5.309-2.771-8.705-4.575c-1.151-0.612-1.35-1.295-2.844-1.295
		c-6.888,0-4.976,11.477-13.617,7.424c-2.635-1.235-6.067-5.39-8.188-7.51c-3.796,0-7.206,5.739-10.688,5.179
		c-2.731-0.438-6.473-5.274-8.446-7.25c-7.343-7.354-8.689-12.652-17.064-2.158c-0.53,0.076-0.698,0.294-1.207-0.086
		c0-4.149-1.754-8.763-1.551-13.035c0.417-8.764,3.105-12.771,0.086-21.839c-0.446-2.687-4.82-8.959-6.378-11.653
		c-1.886-3.26-6.174-1.689-9.394-1.122c-11.442,2.014-10.108,1.358-15.342,11.826c-11.413,2.312-8.858-3.821-16.547-8.977
		l-19.047-12.775c-6.324-4.241-6.894,6.139-14.479,2.762c-5.073-2.258-6.006-7.863-3.361-12.516
		c4.059-0.801,2.315-6.223,5.429-7.079l12.239-3.366c9.713-2.671,13.181-15.529,22.58-18.127c9.992-2.762,6.201-9.005,11.98-15.279
		c4.257-2.128,8.205-2.524,11.117-6.56c2.239-3.101,2.905-5.86,3.965-9.323c1.136-3.706,11.429-9.516,15.341-8.891
		c4.083,0.651,9.701,3.293,11.893-2.416c1.65-4.295,0.96-11.489,0.173-15.97c0.521-8.985,11.479-2.022,15.341-0.69
		c6.989,2.411,8.442-2.96,11.29-7.079c2.056-2.972,6.508-2.216,8.618-6.215c2.007-3.802,8.712-7.436,12.669-7.855
		c3.217-0.34,6.131,1.376,8.102-2.071c2.167-0.722,1.378-4.047,1.378-5.87c0-1.943,0.964-3.574,1.552-5.352
		c1.023-3.088-5.488-2.786-7.843-4.661c-1.548-1.234-2.926-4.552-4.137-6.301c-3.032-4.384-9.393-1.474-13.445-3.799
		c-1.508-0.866-3.142-3.08-4.913-2.33c-3.217,1.361-4.363,4.502-6.98,6.388c-2.887,2.082-5.194-0.084-8.361,0.086l0,0l-2.24,5.87
		l-9.48,6.647c-3.956,1.38-5.15-1.804-8.704-1.295c-3.996,0.571-4.485,4.573-6.292,7.079c-4.656,6.453-9.252,8.566-11.376,17.264
		c-1.51,6.188-2.239,7.899-6.464,12.517c-2.884,3.151-10.676-3.072-11.291-6.215c-0.48-2.448-0.745-5.239-2.585-7.079
		c-7.198-7.199-12.524,0.705-21.116,3.194c-4.815,1.394-6.895,4.923-6.895,9.755c0.242,0.108,0.195,0.084,0.258-0.173
		c-0.335,5.461,2.095,8.079-4.222,10.877c-4.479,1.984-7.07,0.958-9.567,5.784c-1.333,2.575-4.4,2.638-5.344,5.006
		c-1.292,3.239-0.257,5.296-2.586,8.46c-4.101,5.572-9.443,3.265-13.703,7.683c-3.2,3.2-4.624,8.92-9.136,5.265
		c-3.512-2.845-4.343,6.084-5.429,7.769c-1.74,2.701-5.579,2.902-7.24,5.179c-3.186,4.364-8.22,2.988-12.238,0.863
		c-2.687-1.422-14.5,4.29-17.237,5.956c-3.839,2.335-7.405,1.786-10.773,3.366c-4.023,1.888-5.534,6.531-9.567,8.46
		c-3.621,4.533-5.926,10.116-9.739,14.329c-4.315,4.766-5.167-4.312-7.412-3.625c-2.715,0.829-3.606,4.829-6.033,6.215
		c-5.144,2.941-1.02,5.998,3.102,8.46c7.092,4.234-2.272,5.878-5.946,5.179c-6.576-1.251-13.947,6.75-17.927,2.762
		c-3.209-3.214-5.533-1.608-9.049,0.087c-2.963,1.429-8.886,2.216-7.326,6.474c2.306,6.294-4.133,3.817-7.326,6.214
		c-1.523,1.144-1.812,5.086-4.481,4.576c-2.597-0.498-4.482-2.659-4.482,2.589c-0.661,4.223,0.523,4.568-2.241,8.201
		c-2.543,3.341-0.5,4.363,0,7.769c0.938,6.401-2.544,9.64-9.136,11.999c-13.142,4.704-24.527,17.594-33.268,27.795
		c-5.052,5.897,11.131,8.513-0.431,16.229l-10.991,3.925c-1.009-1.201-1.721-2.491-1.765-3.839
		c-0.077-2.397,1.406-4.245,1.293-6.387c-0.161-3.018-5.269-0.038-6.119-2.244c-0.422-1.099,0.077-2.065-0.134-2.666l-4.513,1.719
		c-1.042,0.29-1.797,0.293-2.844,0.086c-0.633-0.126-1.247-0.259-1.897-0.129c-1.644,0.328-2.328,0.858-3.023,2.371
		c-1.211,2.626-0.836,3.681-3.362,5.698c-1.044,0.834-1.954,2.092-0.431,2.935c1.946,1.075,5.572,1.402,7.843,2.071
		c3.911,1.153,6.825,14.031,5.085,17.178c-2.276,4.118-5.967,6.362-1.896,11.221c2.122,2.533,11.791,25.306,11.29,26.155
		c-3.962,6.723,3.209,6.684,3.016,12.43c-0.155,4.641-5.112,2.623-7.843,2.935c-2.127,0.242-3.833,1.201-6.033,1.122
		c-2.293-0.083-3.688-2.061-5.774-2.503c-6.592-1.396-10.838,1.069-16.03-4.834c-2.22-2.525-5.095-2.154-8.188-2.935
		c-2.541-0.642-3.401-2.187-5.602-3.194c-7.253-5.129-14.235-10.027-20.77-16.056c-5.785-5.338-11.307-11.147-18.358-14.675
		c-3.606-1.805-11.786-1.812-14.393-3.884c0-1.603,5.522-6.097,7.067-7.165c3.191-0.615,16.68-2.422,11.98-9.237
		c-2.803-4.064,4.494-5.99,0.948-10.531c-2.419-3.098,2.363-3.502-1.207-7.079c-0.845-0.846-3.25-2.947-1.379-3.884
		c6.421-3.214,10.544,0.159,3.792-7.25c-2.186-2.397-2.944-4.141-4.137,0.431c-1.351,5.173-3.057,2.162-6.55,4.576
		c-0.721,0.499-1.563,3.343-2.327,3.28c-2.436-0.199-2.075-7-2.327-8.718c-0.602-4.115-2.907-11.344-2.074-15.192h-11.548
		l-2.931,2.935l-18.787-10.186l-51.021,11.049l-95.492-2.59l-13.672-64.33l-11.346-75.641l-75.297-11.346l-1.031-81.83l13.065,2.407
		l1.375-114.149l-37.133,14.441l-43.665-87.675l-49.306-36.616l-24.649-41.606l-12.066-4.834l-56.645,31.368l-71.942-3.055
		l-106.179-12.646l-110.023,23.724l-71.171,5.845L788.872,311.41l-4.924-26.573L624.279,155.32l0,0
		c-0.033,9.715-1.918,19.572-6.518,26.69c-6.325,9.785,3.57,9.835,1.897,18.646c-1.702,8.964-2.196,30.475-6.727,37.377
		c-4.038,16.204,0.726,51.872-25.769,49.375c-5.313-0.501-9.121,2.962-14.565,0.863c-4.134-1.594-11.123-8.915-15.428-11.739
		c-9.057-5.941-14.048-13.776-20.684-22.012c-4.974-11.479-14.734-19.472-18.444-31.594c-3.138-10.256,1.491-15.999,5.086-24.86
		c3.524-13.36,7.724-25.813,14.392-37.809c0.714-1.284,1.729-7.165,3.62-6.214l5.172,9.668c0.178,0.066,0.284,0.084,0.431,0.173
		c3.697,0,6.801-14.548,6.637-17.437c0-6.885,0.909-21.448,1.051-33.201l0,0L452.635,52.637l0,0
		c-7.938,7.505-13.377,16.17-17.677,26.391c-0.282,10.637-5.887,23.013,3.189,31.594c4.871,4.604,4.536,14.928,0.948,20.631
		c-3.569,5.675-1.908,8.913-3.017,15.02l-5.688,15.71c-0.73,2.017-5.066,6.295-2.499,8.115c4.866,3.451,9.825-5.591,9.825,3.884
		c0,5.024-0.597,8.688-1.293,13.553c-0.894,6.251,4.96,18.651-4.74,20.199c-2.914,0.465-5.68-5.942-8.963-1.64
		c-2.582,3.383-1.328,9.444-1.207,13.38c0.527,16.754-4.008,32.221-15.082,45.146c-7.949,9.278-10.335,12.594-22.753,11.481
		c-1.304-1.749-4.157-3.232-5.774-5.352c-1.72-2.253-1.46-5.335-2.155-7.942c-1.167-4.371,0.175-13.725,2.931-17.178
		c2.206-2.765,5.529-6.971,5.343-10.618c0-5.024,0.528-10.59-1.81-15.278c-1.8-3.613-3.684-7.157-4.913-11.05
		c-2.276-7.214-4.195-17.7-3.448-25.292c0.548-5.564,2.871-10.648,3.534-16.142c3.777-7.88,3.541-16.662,7.067-24.084
		c2.842-5.984,7.55-9.159,8.791-16.229c1.918-10.919,5.051-22.059,9.308-32.197c4.749-7.936,13.992-16.967,16.289-25.81
		c2.129-8.192,2.275-16.538,5.257-24.428c0.753-1.991,2.372-4.666,3.769-7.292l0,0L56.793,156.933l0.081,719.033l0,0l112.43,6.189
		l35.758,9.627c8.721-1.962-6.133-12.405,2.985-15.061c6.508-1.897,13.876-3.167,13.876-10.877c-2.426-0.6-6.083,5.039-9.653,0.777
		c-4.029-4.812-6.665-10.044-7.326-16.229c-0.429-4.007,0.535-8.089,0.948-11.999c0.558-5.289-1.711-8.928-2.326-13.897
		c-1.783-2.035-4.774-9.164-5.688-11.912c-2.277-6.845-1.47-12.442-2.155-19.595c-0.724-7.574-0.129-16.657,1.033-24.084
		c4.26-2.475,5.554-6.158,11.204-7.337c17.706-3.696,19.494-25.516,29.475-38.586c6.23-8.16,20.765-6.777,29.992-5.784
		c13.034,1.404,22.064,3.588,34.042-2.417c3.526-0.171,7.172-1.171,10.773-1.381c2.699-0.158,9.892,1.072,8.877-3.021
		c-0.312-1.254-2.698-8.832-1.034-9.15c0.969-0.186,3.392,3.539,5.774,3.539c3.879,0,2.419-6.071,3.276-8.978
		c1.592-5.396,5.137-11.049,6.205-16.401c2.616-8.082-4.155-9.666-5.429-14.848c-1.657-6.742,6.825,0.675,8.963-5.092
		c2.061-5.56,0.562-4.268,5.171-8.978c1.894-1.936,3.814-8.739,6.637-4.402c2.005,3.08,5.494,2.092,8.704,2.848
		c4.001,0.941-1.424,12.519,4.223,9.582c10.603-5.517,21.453-0.884,28.958,7.079c5.763,6.116,3.155,16.8,4.913,23.911
		c4.728,0,8.038-0.283,12.927,0.605c4.61,0.838,4.396,2.237,4.396-3.885c0-8.043-4.866-5.935-9.997-10.704
		c-6.874-6.389-10.114-20.19-15.686-28.572c-4.003-6.023-4.495-9.252-11.461-11.307c-3.655-1.078-16.636-4.098-12.669-10.186
		c6.715-4.274,10.337-11.739,19.381-11.739c6.228,0,11.109,2.384,16.547,5.006c7.068,3.41,14.205,2.309,21.891,1.727
		c7.481-0.568,3.189-7.49,3.189-12.517c2.123-0.536,12.678-0.887,5.257-4.748c-2.214-1.152-1.937-9.059-0.431-11.136l54.813,52.052
		c4.521-0.26,8.912,1.435,13.617,0.863c3.322-0.404,8.641-0.967,11.808-0.346c1.074,1.346,0.257,3.349,1.551,4.834
		c2.494,2.859,6.883,5.417,8.446,8.718c1.11,2.342,0.077,4.929,0.431,7.337c0.482,3.288,5.563,10.641,8.446,11.998
		c2.784,1.308,5.719,1.91,8.445,3.195c2.365,1.116,3.311,3.081,5.086,4.143c0.859,7.844,11.319,5.403,17.236,5.611
		c4.851,0.349,9.112-2.458,13.618-1.898c3.806,0.473,3.954,3.419,7.929,0.345c4.962-3.837,9.494,2.688,14.393,3.367
		c3.261,0.452,6.494-4.106,9.997-5.007c7.721-1.985,5.998,4.994,11.807,8.546c5.001,3.058,12.177,5.226,10.946,12.258
		c-1.565,0.418-0.204,3.4-3.189,4.317c-1.023,0.315-4.539,0.173-4.482,1.554c0.066,1.63,2.317,3.051,2.672,4.92
		c1.07,5.639,4.516,3.57,9.394,3.711c4.243,0.124,0.896,11.522,0.345,14.07c-0.496,2.288-2.746,8.829-5.343,9.323
		c-3.484,0.662-4.244-4.029-7.843-2.417c-0.879,0.394-6.132,0.822-5.257,2.676c0.835,1.768,2.563,2.536,3.189,4.576
		c1.287,4.196,1.978,6.508,6.033,4.143c4.033-2.354,5.836-1.481,6.808,2.417c-3.366,8.096,3.902,6.368,9.136,7.079
		c7.376,1.002,5.325,4.868,8.446,9.236c2.106,2.946,8.443,4.604,11.721,5.784c2.218,0.797,12.999,9.13,12.325,11.826
		c-0.395,1.577-2.833,2.461-3.965,3.366c-1.648,1.317-7.295-3.038-9.566-4.143c-3.024-1.474-4.723-4.571-7.757-5.179
		c-2.186-0.437-11.322-3.419-12.584-2.245c-1.615,1.501-0.148,4.184-1.034,5.956c-0.989,1.981-3.917,2.17-5.688,3.28
		c-0.696,5.649,10.267,15.78,13.445,20.027c1.584,5.048,7.713,8.865,2.93,13.897c-5.139,5.406-9.398,13.967-10.859,21.321
		c-2.076,10.46,15.743,19.414,21.632,26.674c3.138,2.751,8.987,1.779,12.927,2.935c4.807,1.409,11.631,8.473,14.996,12.344
		c4.44,5.105,18.004,8.645,23.874,4.92c11.923-7.564,18.928-6.301,32.922-6.301l17.754,1.381c4.672,0.363,9.969,7.161,11.549-0.604
		c1.22-5.994,7.421,3.722,7.843,4.23c5.138,6.188,12.63,12.512,20.598,15.02c11.647,3.665,15.755-0.474,22.494-8.374l0.417-7.604
		c1.9-2.836,1.936-12.062,4.932-14.58c2.09-1.758,26.28,7.675,28.527,10.704c5.713,7.7,17.216,10.411,22.236,18.99
		c2.572,4.395,9.38,6.279,12.841,10.013c2.054,2.217,1.124,8.05,4.567,9.582c3.456,1.538,5.131,1.237,7.24,4.747
		c6.746,11.223,4.292,20.387,3.878,32.975c-0.194,5.898,5.343,9.45,6.377,14.848c0.797,4.167,0.319,8.519,1.897,12.517
		c1.259,3.192,5.101,2.72,6.464,5.784c2.156,4.845,1.488,10.676,2.671,15.883c1.465,6.447,5.923,13.209,11.29,16.832
		c5.757,3.887,16.435,1.766,19.391,9.927c1.626,4.49-1.516,10.122,1.207,13.897c1.973,2.735,7.29,2.995,8.015,6.56
		c1.142,5.613-1.394,11.378-0.431,17.092c1.086,6.442,4.283,11.411,2.672,18.386c-0.48,2.08-0.73,5.731,0,7.683
		c1.384,3.696,3.361,4.669,3.361,9.322c0,2.12-0.606,5.183,0,7.166c1.903,6.216,8.387,9.419,11.091,14.537l168.429,122.713
		l1.897,8.977l68.085,48.858l22.753-6.215l37.577,34.01c9.264,4.075,14.049,9.988,21.374,15.884
		c6.139,4.943,10.698,3.213,16.375,6.733c4.245,2.633,6.325,5.582,9.997,8.977c5.234,4.836,12.663,1.284,18.444,8.114
		c2.625,3.1,4.68,5.31,6.722,8.978c3.3,5.927,7.983,6.52,12.755,10.704c4.646,5.637,16.774,12.063,23.184,16.142
		c10.094,6.421,20.375,17.744,32.405,20.371c3.883,0.847,30.921,7.803,33.009,6.129c0.033-0.165,0.069-0.216,0.173-0.346
		c0-2.367,1.195-2.982,2.155-4.747l11.721,0.173c4.431,7.766,5.756,6.56,13.876,7.596c2.029,0.259,8.3,6.93,10.083,8.632
		c5.494,5.244,13.615,3.23,20.167,5.007c1.542,0.418,2.518,4.516,3.275,5.87c2.007,3.591,7.673,8.435,11.376,10.099
		c4.615,4.29,10.287,8.757,17.064,6.733c7.21-2.155,5.503-1.661,11.808,0.519c6.07,2.097,12.606,5.752,18.012,9.15
		c3.501,2.202,3.348,7.188,5.345,10.497c0.415,0.685,0.607,0.604-0.232,0.664c-4.48,0.341-8.985,4.058-11.663,7.312
		c-1.691,2.054-3.761,3.988-5.257,6.214c-2.03,3.023-3.281,7.181-5.429,9.841l0.517,16.832c0.145,4.74-0.462,8.486-2.757,12.689
		c-4.142,7.582-2.448,12.86,3.275,18.818c5.452,5.675,0.14,21.743-1.027,28.474l0,0c2.543-1.801,4.889-2.354,8.352,0.444
		c2.796,2.259,1.852,5.611,6.895,5.611c5.048,0,9.347-7.51,16.375-7.51c3.566,0,4.384,1.294,7.326,2.158
		c3.223,0.947,6.744-1.99,9.653-2.849c8.545-2.523,19.286-10.099,25.942,0.518c1.804,2.878,4.211,5.426,6.55,7.769
		c2.467,2.472,7.709,4.779,8.619,8.374c0.939,3.712,7.321,11.406,10.773,13.207c6.106,3.187,24.438-2.286,29.044-6.647
		c2.005-1.897,4.594-9.252,8.704-6.819c3.329,1.97,3.713,4.711,5.688,7.682C1706.161,1632.257,1728.718,1625.315,1734.972,1637.208
		L1734.972,1637.208L1734.972,1637.208z"/>
</g>
</svg>
